<svg width="23" height="22" fill="none" xmlns="http://www.w3.org/2000/svg"><path d="m16.06 16.473 5.518 5.326c.134.129.316.201.505.201s.37-.072.504-.2a.678.678 0 0 0 .208-.488.678.678 0 0 0-.208-.486l-5.08-4.902c3.391-3.777 3.23-9.52-.487-13.108C13.13-.94 6.803-.94 2.915 2.816a9.405 9.405 0 0 0 0 13.614 9.94 9.94 0 0 0 3.234 2.091c1.21.484 2.508.732 3.819.729.189 0 .37-.073.503-.202a.676.676 0 0 0 .21-.486.676.676 0 0 0-.21-.486.725.725 0 0 0-.503-.202 8.763 8.763 0 0 1-3.274-.623 8.519 8.519 0 0 1-2.771-1.793c-1.6-1.55-2.499-3.648-2.499-5.835s.899-4.286 2.499-5.835C5.527 2.242 7.7 1.374 9.968 1.374c2.266 0 4.44.868 6.044 2.414 1.6 1.55 2.5 3.648 2.5 5.835 0 2.188-.9 4.286-2.5 5.835a.686.686 0 0 0-.208.518.669.669 0 0 0 .257.497z" fill="#000"/></svg>